<svg width="87.072021" height="87.071777" viewBox="0 0 87.072 87.0718" fill="none" xmlns="http://www.w3.org/2000/svg" xmlns:xlink="http://www.w3.org/1999/xlink">
	<desc>
			Created with Pixso.
	</desc>
	<defs/>
	<path id="Ellipse 47" d="M87.07 43.53C87.07 67.55 67.55 87.07 43.53 87.07C19.51 87.07 0 67.55 0 43.53C0 19.51 19.51 0 43.53 0C67.55 0 87.07 19.51 87.07 43.53Z" fill="#32B01E" fill-opacity="1.000000" fill-rule="evenodd"/>
	<path id="Vector" d="M57.14 29.87C56.69 29.42 56.08 29.18 55.45 29.18C54.82 29.18 54.21 29.44 53.77 29.88C53.32 30.33 53.07 30.93 53.07 31.56C53.06 32.19 53.31 32.8 53.75 33.25C55.78 35.29 57.17 37.88 57.73 40.69C58.29 43.51 58 46.44 56.9 49.09C55.8 51.75 53.94 54.02 51.55 55.62C49.16 57.21 46.35 58.07 43.47 58.07C40.6 58.07 37.79 57.21 35.4 55.62C33.01 54.02 31.14 51.75 30.04 49.09C28.94 46.44 28.65 43.51 29.21 40.69C29.78 37.88 31.16 35.29 33.19 33.25C33.63 32.8 33.88 32.19 33.88 31.56C33.87 30.93 33.62 30.33 33.18 29.88C32.73 29.44 32.13 29.18 31.49 29.18C30.86 29.18 30.26 29.42 29.81 29.87C22.31 37.36 22.31 49.7 29.81 57.2C37.3 64.69 49.64 64.69 57.14 57.2C58.95 55.41 60.38 53.28 61.37 50.94C62.35 48.59 62.85 46.07 62.85 43.53C62.85 40.99 62.35 38.47 61.37 36.13C60.38 33.78 58.95 31.65 57.14 29.87ZM43.47 45.95C44.11 45.95 44.73 45.7 45.18 45.24C45.64 44.79 45.89 44.17 45.89 43.53L45.89 26.6C45.89 25.96 45.64 25.34 45.18 24.89C44.73 24.44 44.11 24.18 43.47 24.18C42.83 24.18 42.22 24.44 41.76 24.89C41.31 25.34 41.05 25.96 41.05 26.6L41.05 43.53C41.05 44.17 41.31 44.79 41.76 45.24C42.22 45.7 42.83 45.95 43.47 45.95Z" fill="#FFFFFF" fill-opacity="1.000000" fill-rule="nonzero"/>
</svg>
