<svg aria-hidden="true" xmlns="http://www.w3.org/2000/svg" xmlns:xlink="http://www.w3.org/1999/xlink"><symbol viewBox="0 0 13.5062 7.50317" fill="none" id="arrow" xmlns="http://www.w3.org/2000/svg">
	<desc>
			Created with Pixso.
	</desc>
	<defs/>
	<path id="aVector (&#x413;&#x440;&#x430;&#x43D;&#x438;&#x446;&#x430;)" d="M12.22 0.22C12.51 -0.08 12.98 -0.08 13.28 0.22C13.58 0.51 13.58 0.98 13.28 1.28L7.28 7.28C7.13 7.42 6.96 7.5 6.75 7.5C6.54 7.5 6.36 7.42 6.22 7.28L0.22 1.28C-0.08 0.98 -0.08 0.51 0.22 0.22C0.51 -0.08 0.98 -0.08 1.28 0.22L6.75 5.69L12.22 0.22Z" fill="currentColor" fill-opacity="1.000000" fill-rule="evenodd"/>
</symbol><symbol viewBox="0 0 26.4036 25.2" fill="none" id="cities" xmlns="http://www.w3.org/2000/svg">
	<desc>
			Created with Pixso.
	</desc>
	<defs/>
	<path id="bVector" d="M4.2 0L4.2 9.6L0 9.6L0.09 25.2L8.43 25.2L9.63 25.2L18 25.2L26.4 25.2L26.4 2.39L16.8 2.39L16.8 3L16.8 14.39L13.8 14.39L13.8 0L4.2 0ZM5.4 1.19L12.6 1.2L12.6 14.39L9.61 14.39L9.6 9.6L9 9.6L5.4 9.6L5.4 1.19ZM7.2 2.39L7.2 3.6L8.4 3.6L8.4 2.39L7.2 2.39ZM9.62 2.39L9.62 3.6L10.8 3.6L10.8 2.39L9.62 2.39ZM18 3.6L25.2 3.6L25.2 24L22.18 24L22.18 21.6L21 21.6L21 24L18 24L18 14.39L18 3.6ZM7.2 4.8L7.2 6L8.4 6L8.4 4.8L7.2 4.8ZM9.6 4.8L9.6 6L10.8 6L10.8 4.8L9.6 4.8ZM19.8 4.8L19.8 6L21 6L21 4.8L19.8 4.8ZM22.21 4.8L22.21 6.01L23.39 6.01L23.39 4.8L22.21 4.8ZM19.8 7.2L19.8 8.39L21 8.39L21 7.2L19.8 7.2ZM22.21 7.2L22.21 8.39L23.39 8.39L23.39 7.2L22.21 7.2ZM19.8 9.6L19.8 10.8L21 10.8L21 9.6L19.8 9.6ZM22.2 9.6L22.2 10.8L23.39 10.8L23.39 9.6L22.2 9.6ZM1.2 10.8L8.4 10.8L8.41 14.39L8.4 14.39L8.42 24L5.39 24L5.39 21.6L4.21 21.6L4.21 24L1.28 24L1.2 10.8ZM3 12L3 13.2L4.22 13.2L4.22 12L3 12ZM5.42 12L5.42 13.2L6.6 13.2L6.6 12L5.42 12ZM19.8 12L19.8 13.19L21 13.19L21 12L19.8 12ZM22.2 12L22.2 13.19L23.39 13.19L23.39 12L22.2 12ZM3 14.39L3 15.6L4.22 15.6L4.22 14.39L3 14.39ZM5.42 14.39L5.42 15.6L6.6 15.6L6.6 14.39L5.42 14.39ZM19.8 14.39L19.8 15.6L21 15.6L21 14.39L19.8 14.39ZM22.21 14.39L22.21 15.6L23.39 15.6L23.39 14.39L22.21 14.39ZM9.61 15.6L16.8 15.6L16.8 24L13.8 24L13.8 21.6L12.6 21.6L12.6 24L9.62 24L9.61 15.6ZM3 16.79L3 18L4.22 18L4.22 16.79L3 16.79ZM5.42 16.79L5.42 18L6.6 18L6.6 16.79L5.42 16.79ZM11.4 16.79L11.4 18L12.6 18L12.6 16.79L11.4 16.79ZM13.8 16.79L13.8 18L15 18L15 16.79L13.8 16.79ZM19.8 16.79L19.8 18L21 18L21 16.79L19.8 16.79ZM22.21 16.79L22.21 18L23.39 18L23.39 16.79L22.21 16.79ZM11.4 19.19L11.4 20.39L12.6 20.39L12.6 19.19L11.4 19.19ZM13.8 19.19L13.8 20.39L15 20.39L15 19.19L13.8 19.19ZM19.8 19.19L19.8 20.39L21 20.39L21 19.19L19.8 19.19ZM22.21 19.19L22.21 20.39L23.39 20.39L23.39 19.19L22.21 19.19Z" fill="currentColor" fill-opacity="1.000000" fill-rule="nonzero"/>
</symbol><symbol viewBox="0 0 15 18.1521" fill="none" id="kassir" xmlns="http://www.w3.org/2000/svg">
	<desc>
			Created with Pixso.
	</desc>
	<defs/>
	<path id="cVector (&#x413;&#x440;&#x430;&#x43D;&#x438;&#x446;&#x430;)" d="M7.5 8.91C9.96 8.91 11.95 6.91 11.95 4.45C11.95 1.99 9.96 0 7.5 0C5.03 0 3.04 1.99 3.04 4.45C3.04 6.91 5.03 8.91 7.5 8.91ZM7.5 7.91C7.76 7.91 8.02 7.88 8.28 7.82C8.47 7.78 8.66 7.71 8.84 7.64C9.03 7.56 9.21 7.46 9.38 7.35C9.58 7.22 9.77 7.07 9.94 6.9C10.11 6.72 10.26 6.54 10.39 6.34C10.5 6.17 10.6 5.99 10.68 5.8C10.76 5.61 10.82 5.42 10.86 5.23C10.92 4.98 10.95 4.72 10.95 4.45C10.95 4.18 10.92 3.92 10.86 3.67C10.82 3.48 10.76 3.29 10.68 3.11C10.6 2.92 10.5 2.74 10.39 2.57C10.26 2.37 10.11 2.18 9.94 2.01C9.77 1.84 9.58 1.68 9.38 1.55C9.21 1.44 9.03 1.35 8.84 1.27C8.66 1.19 8.47 1.13 8.28 1.08C8.02 1.02 7.76 1 7.5 1C7.23 1 6.97 1.02 6.71 1.08C6.52 1.13 6.33 1.19 6.15 1.27C5.96 1.35 5.78 1.44 5.61 1.55C5.41 1.68 5.22 1.84 5.05 2.01C4.88 2.18 4.73 2.37 4.6 2.57C4.49 2.74 4.39 2.92 4.31 3.11C4.23 3.29 4.17 3.48 4.13 3.67C4.07 3.92 4.04 4.18 4.04 4.45C4.04 4.72 4.07 4.98 4.13 5.23C4.17 5.42 4.23 5.61 4.31 5.8C4.39 5.99 4.49 6.17 4.6 6.34C4.73 6.54 4.88 6.72 5.05 6.9C5.22 7.07 5.41 7.22 5.61 7.35C5.78 7.46 5.96 7.56 6.15 7.64C6.33 7.71 6.52 7.78 6.71 7.82C6.97 7.88 7.23 7.91 7.5 7.91ZM14.42 15.28C14.67 15.88 14.84 16.51 14.93 17.15C14.97 17.48 15 17.81 15 18.15L0 18.15C0 17.81 0.02 17.48 0.06 17.15C0.15 16.51 0.32 15.88 0.57 15.28C0.94 14.37 1.5 13.54 2.19 12.84C2.89 12.15 3.71 11.59 4.62 11.22C5.53 10.84 6.51 10.65 7.5 10.65C8.48 10.65 9.46 10.84 10.37 11.22C11.28 11.59 12.1 12.15 12.8 12.84C13.49 13.54 14.05 14.37 14.42 15.28ZM13.87 16.89C13.89 16.97 13.91 17.06 13.92 17.15L1.07 17.15C1.09 17.06 1.1 16.97 1.12 16.88C1.2 16.47 1.32 16.06 1.49 15.66C1.65 15.26 1.85 14.89 2.09 14.54C2.32 14.18 2.59 13.86 2.9 13.55C3.2 13.25 3.53 12.98 3.88 12.74C4.23 12.51 4.61 12.31 5.01 12.14C5.41 11.98 5.81 11.85 6.23 11.77C6.64 11.69 7.06 11.65 7.5 11.65C7.93 11.65 8.35 11.69 8.76 11.77C9.18 11.85 9.58 11.98 9.98 12.14C10.38 12.31 10.76 12.51 11.11 12.74C11.46 12.98 11.79 13.25 12.09 13.55C12.4 13.86 12.67 14.18 12.9 14.54C13.14 14.89 13.34 15.26 13.5 15.66C13.67 16.06 13.79 16.47 13.87 16.89Z" fill="currentColor" fill-opacity="1.000000" fill-rule="evenodd"/>
</symbol><symbol viewBox="0 0 18 18" fill="none" id="logout" xmlns="http://www.w3.org/2000/svg">
	<desc>
			Created with Pixso.
	</desc>
	<defs/>
	<path id="dVector (&#x413;&#x440;&#x430;&#x43D;&#x438;&#x446;&#x430;)" d="M13.84 4.53C13.54 4.23 13.08 4.23 12.78 4.53C12.48 4.82 12.48 5.29 12.78 5.59L16.18 9L12.78 12.4C12.48 12.7 12.48 13.17 12.78 13.46C13.08 13.76 13.54 13.76 13.84 13.46L17.78 9.53C17.92 9.38 18 9.2 18 9C18 8.79 17.92 8.61 17.78 8.46L13.84 4.53Z" fill="currentColor" fill-opacity="1.000000" fill-rule="evenodd"/>
	<path id="dVector (&#x413;&#x440;&#x430;&#x43D;&#x438;&#x446;&#x430;)" d="M6.75 8.25L17.24 8.25C17.66 8.25 17.99 8.58 17.99 9C17.99 9.41 17.66 9.75 17.24 9.75L6.75 9.75C6.32 9.75 6 9.41 6 9C6 8.58 6.32 8.25 6.75 8.25Z" fill="currentColor" fill-opacity="1.000000" fill-rule="evenodd"/>
	<path id="dVector (&#x413;&#x440;&#x430;&#x43D;&#x438;&#x446;&#x430;)" d="M1.5 18L6.75 18C7.17 18 7.5 17.66 7.5 17.25C7.5 16.83 7.17 16.5 6.75 16.5L1.5 16.5L1.5 1.5L6.75 1.5C7.17 1.5 7.5 1.16 7.5 0.75C7.5 0.33 7.17 0 6.75 0L1.5 0C1.4 0 1.3 0 1.2 0.02C1.11 0.04 1.01 0.07 0.92 0.11C0.83 0.15 0.74 0.19 0.66 0.25C0.58 0.3 0.5 0.36 0.43 0.43C0.36 0.5 0.3 0.58 0.25 0.66C0.19 0.74 0.15 0.83 0.11 0.92C0.07 1.01 0.04 1.11 0.02 1.2C0 1.3 0 1.4 0 1.5L0 16.5C0 16.59 0 16.69 0.02 16.79C0.04 16.88 0.07 16.98 0.11 17.07C0.15 17.16 0.19 17.25 0.25 17.33C0.3 17.41 0.36 17.49 0.43 17.56C0.5 17.63 0.58 17.69 0.66 17.74C0.74 17.8 0.83 17.84 0.92 17.88C1.01 17.92 1.11 17.95 1.2 17.97C1.3 17.99 1.4 18 1.5 18Z" fill="currentColor" fill-opacity="1.000000" fill-rule="evenodd"/>
</symbol></svg>