<svg width="2089.014404" height="1848.539307" viewBox="0 0 2089.01 1848.54" fill="none" xmlns="http://www.w3.org/2000/svg" xmlns:xlink="http://www.w3.org/1999/xlink">
	<desc>
			Created with Pixso.
	</desc>
	<defs/>
	<path d="M1663.47 671.65C1698.99 775.46 1801.62 862.71 1785.63 971.26C1769.59 1080.13 1640.97 1131.02 1582.11 1224C1527.6 1310.1 1526.74 1424.65 1453.66 1495.67C1373.39 1573.66 1267.77 1633.66 1155.93 1638.12C1043.41 1642.61 937.77 1584.61 845.56 1519.95C758.83 1459.12 704.58 1367.97 645.43 1280.09C583.2 1187.64 498.32 1101.93 489.42 990.83C480.39 878.02 548.08 776.96 596.98 674.89C648.71 566.92 676.18 427.17 784.21 375.56C893.04 323.57 1018.11 433.87 1137.49 416.69C1283.13 395.72 1412.02 201.96 1544.42 266.14C1673.38 328.66 1617.09 536.05 1663.47 671.65Z" fill="#0099B5" fill-opacity="1.000000" fill-rule="evenodd"/>
	<path d="M1534.47 704.65C1569.99 808.46 1672.62 895.71 1656.63 1004.26C1640.59 1113.13 1511.97 1164.02 1453.11 1257C1398.6 1343.1 1397.74 1457.65 1324.66 1528.67C1244.39 1606.66 1138.77 1666.66 1026.93 1671.12C914.4 1675.61 808.77 1617.61 716.56 1552.95C629.83 1492.12 575.58 1400.97 516.43 1313.09C454.2 1220.64 369.31 1134.93 360.42 1023.84C351.39 911.02 419.08 809.96 467.98 707.89C519.71 599.92 547.18 460.17 655.21 408.56C764.04 356.58 889.11 466.87 1008.49 449.69C1154.13 428.72 1283.02 234.96 1415.42 299.14C1544.38 361.66 1488.09 569.05 1534.47 704.65Z" fill="#CE1126" fill-opacity="1.000000" fill-rule="evenodd"/>
	<path d="M1527.8 704.54C1563.31 808.35 1665.95 895.6 1649.96 1004.15C1633.92 1113.01 1505.3 1163.91 1446.44 1256.89C1391.93 1342.99 1391.07 1457.54 1317.98 1528.56C1237.72 1606.55 1132.1 1666.55 1020.27 1671.01C907.73 1675.5 802.09 1617.5 709.89 1552.83C623.16 1492.01 568.91 1400.86 509.76 1312.98C447.53 1220.53 362.64 1134.81 353.75 1023.72C344.72 910.9 412.41 809.85 461.31 707.78C513.04 599.81 540.51 460.06 648.54 408.45C757.37 356.46 882.44 466.76 1001.82 449.57C1147.44 428.61 1276.35 234.85 1408.75 299.03C1537.71 361.55 1481.41 568.94 1527.8 704.54Z" fill="#FFFFFF" fill-opacity="1.000000" fill-rule="evenodd"/>
	<path d="M1399.13 704.54C1434.64 808.35 1537.27 895.6 1521.29 1004.15C1505.25 1113.01 1376.62 1163.91 1317.77 1256.89C1263.26 1342.99 1262.4 1457.54 1189.31 1528.56C1109.05 1606.55 1003.43 1666.55 891.59 1671.01C779.06 1675.5 673.42 1617.5 581.22 1552.83C494.49 1492.01 440.24 1400.86 381.09 1312.98C318.86 1220.53 233.97 1134.81 225.08 1023.72C216.05 910.9 283.73 809.85 332.64 707.78C384.37 599.81 411.84 460.06 519.87 408.45C628.7 356.46 753.77 466.76 873.14 449.57C1018.78 428.61 1147.68 234.85 1280.07 299.03C1409.04 361.55 1352.74 568.94 1399.13 704.54Z" fill="#CE1126" fill-opacity="1.000000" fill-rule="evenodd"/>
	<path d="M1392.13 704.54C1427.64 808.35 1530.27 895.6 1514.29 1004.15C1498.25 1113.01 1369.62 1163.91 1310.77 1256.89C1256.26 1342.99 1255.4 1457.54 1182.31 1528.56C1102.05 1606.55 996.42 1666.55 884.59 1671.01C772.06 1675.5 666.42 1617.5 574.22 1552.83C487.49 1492.01 433.24 1400.86 374.09 1312.98C311.86 1220.53 226.97 1134.81 218.08 1023.72C209.05 910.9 276.73 809.85 325.64 707.78C377.37 599.81 404.84 460.06 512.87 408.45C621.7 356.46 746.77 466.76 866.14 449.57C1011.78 428.61 1140.68 234.85 1273.07 299.03C1402.04 361.55 1345.74 568.94 1392.13 704.54Z" fill="#1EB53A" fill-opacity="1.000000" fill-rule="evenodd"/>
</svg>
