<svg width="149.000000" height="149.000000" viewBox="0 0 149 149" fill="none" xmlns="http://www.w3.org/2000/svg" xmlns:xlink="http://www.w3.org/1999/xlink">
	<desc>
			Created with Pixso.
	</desc>
	<defs>
		<clipPath id="clip19_20389">
			<rect id="qr" rx="-0.072825" width="148.854355" height="148.854355" transform="translate(0.072825 0.072825)" fill="white" fill-opacity="0"/>
		</clipPath>
	</defs>
	<rect id="qr" rx="-0.072825" width="148.854355" height="148.854355" transform="translate(0.072825 0.072825)" fill="#FFFFFF" fill-opacity="0"/>
	<g clip-path="url(#clip19_20389)">
		<path id="Vector" d="M0 0L149 0L149 149L0 149L0 0Z" fill="#FFFFFF" fill-opacity="1.000000" fill-rule="evenodd"/>
		<path id="Vector" d="M45.15 9.03L49.8 9.03L49.8 13.68L45.15 13.68L45.15 9.03Z" fill="#000000" fill-opacity="1.000000" fill-rule="evenodd"/>
		<path id="Vector" d="M54.18 9.03L58.83 9.03L58.83 13.68L54.18 13.68L54.18 9.03Z" fill="#000000" fill-opacity="1.000000" fill-rule="evenodd"/>
		<path id="Vector" d="M58.69 9.03L63.34 9.03L63.34 13.68L58.69 13.68L58.69 9.03Z" fill="#000000" fill-opacity="1.000000" fill-rule="evenodd"/>
		<path id="Vector" d="M63.21 9.03L67.86 9.03L67.86 13.68L63.21 13.68L63.21 9.03Z" fill="#000000" fill-opacity="1.000000" fill-rule="evenodd"/>
		<path id="Vector" d="M81.27 9.03L85.92 9.03L85.92 13.68L81.27 13.68L81.27 9.03Z" fill="#000000" fill-opacity="1.000000" fill-rule="evenodd"/>
		<path id="Vector" d="M85.78 9.03L90.43 9.03L90.43 13.68L85.78 13.68L85.78 9.03Z" fill="#000000" fill-opacity="1.000000" fill-rule="evenodd"/>
		<path id="Vector" d="M90.3 9.03L94.95 9.03L94.95 13.68L90.3 13.68L90.3 9.03Z" fill="#000000" fill-opacity="1.000000" fill-rule="evenodd"/>
		<path id="Vector" d="M99.33 9.03L103.98 9.03L103.98 13.68L99.33 13.68L99.33 9.03Z" fill="#000000" fill-opacity="1.000000" fill-rule="evenodd"/>
		<path id="Vector" d="M45.15 13.54L49.8 13.54L49.8 18.19L45.15 18.19L45.15 13.54Z" fill="#000000" fill-opacity="1.000000" fill-rule="evenodd"/>
		<path id="Vector" d="M49.66 13.54L54.31 13.54L54.31 18.19L49.66 18.19L49.66 13.54Z" fill="#000000" fill-opacity="1.000000" fill-rule="evenodd"/>
		<path id="Vector" d="M54.18 13.54L58.83 13.54L58.83 18.19L54.18 18.19L54.18 13.54Z" fill="#000000" fill-opacity="1.000000" fill-rule="evenodd"/>
		<path id="Vector" d="M58.69 13.54L63.34 13.54L63.34 18.19L58.69 18.19L58.69 13.54Z" fill="#000000" fill-opacity="1.000000" fill-rule="evenodd"/>
		<path id="Vector" d="M72.24 13.54L76.89 13.54L76.89 18.19L72.24 18.19L72.24 13.54Z" fill="#000000" fill-opacity="1.000000" fill-rule="evenodd"/>
		<path id="Vector" d="M76.75 13.54L81.4 13.54L81.4 18.19L76.75 18.19L76.75 13.54Z" fill="#000000" fill-opacity="1.000000" fill-rule="evenodd"/>
		<path id="Vector" d="M81.27 13.54L85.92 13.54L85.92 18.19L81.27 18.19L81.27 13.54Z" fill="#000000" fill-opacity="1.000000" fill-rule="evenodd"/>
		<path id="Vector" d="M85.78 13.54L90.43 13.54L90.43 18.19L85.78 18.19L85.78 13.54Z" fill="#000000" fill-opacity="1.000000" fill-rule="evenodd"/>
		<path id="Vector" d="M94.81 13.54L99.46 13.54L99.46 18.19L94.81 18.19L94.81 13.54Z" fill="#000000" fill-opacity="1.000000" fill-rule="evenodd"/>
		<path id="Vector" d="M45.15 18.06L49.8 18.06L49.8 22.71L45.15 22.71L45.15 18.06Z" fill="#000000" fill-opacity="1.000000" fill-rule="evenodd"/>
		<path id="Vector" d="M90.3 18.06L94.95 18.06L94.95 22.71L90.3 22.71L90.3 18.06Z" fill="#000000" fill-opacity="1.000000" fill-rule="evenodd"/>
		<path id="Vector" d="M94.81 18.06L99.46 18.06L99.46 22.71L94.81 22.71L94.81 18.06Z" fill="#000000" fill-opacity="1.000000" fill-rule="evenodd"/>
		<path id="Vector" d="M99.33 18.06L103.98 18.06L103.98 22.71L99.33 22.71L99.33 18.06Z" fill="#000000" fill-opacity="1.000000" fill-rule="evenodd"/>
		<path id="Vector" d="M54.18 22.57L58.83 22.57L58.83 27.22L54.18 27.22L54.18 22.57Z" fill="#000000" fill-opacity="1.000000" fill-rule="evenodd"/>
		<path id="Vector" d="M67.72 22.57L72.37 22.57L72.37 27.22L67.72 27.22L67.72 22.57Z" fill="#000000" fill-opacity="1.000000" fill-rule="evenodd"/>
		<path id="Vector" d="M72.24 22.57L76.89 22.57L76.89 27.22L72.24 27.22L72.24 22.57Z" fill="#000000" fill-opacity="1.000000" fill-rule="evenodd"/>
		<path id="Vector" d="M76.75 22.57L81.4 22.57L81.4 27.22L76.75 27.22L76.75 22.57Z" fill="#000000" fill-opacity="1.000000" fill-rule="evenodd"/>
		<path id="Vector" d="M81.27 22.57L85.92 22.57L85.92 27.22L81.27 27.22L81.27 22.57Z" fill="#000000" fill-opacity="1.000000" fill-rule="evenodd"/>
		<path id="Vector" d="M85.78 22.57L90.43 22.57L90.43 27.22L85.78 27.22L85.78 22.57Z" fill="#000000" fill-opacity="1.000000" fill-rule="evenodd"/>
		<path id="Vector" d="M94.81 22.57L99.46 22.57L99.46 27.22L94.81 27.22L94.81 22.57Z" fill="#000000" fill-opacity="1.000000" fill-rule="evenodd"/>
		<path id="Vector" d="M54.18 27.09L58.83 27.09L58.83 31.74L54.18 31.74L54.18 27.09Z" fill="#000000" fill-opacity="1.000000" fill-rule="evenodd"/>
		<path id="Vector" d="M58.69 27.09L63.34 27.09L63.34 31.74L58.69 31.74L58.69 27.09Z" fill="#000000" fill-opacity="1.000000" fill-rule="evenodd"/>
		<path id="Vector" d="M63.21 27.09L67.86 27.09L67.86 31.74L63.21 31.74L63.21 27.09Z" fill="#000000" fill-opacity="1.000000" fill-rule="evenodd"/>
		<path id="Vector" d="M67.72 27.09L72.37 27.09L72.37 31.74L67.72 31.74L67.72 27.09Z" fill="#000000" fill-opacity="1.000000" fill-rule="evenodd"/>
		<path id="Vector" d="M81.27 27.09L85.92 27.09L85.92 31.74L81.27 31.74L81.27 27.09Z" fill="#000000" fill-opacity="1.000000" fill-rule="evenodd"/>
		<path id="Vector" d="M90.3 27.09L94.95 27.09L94.95 31.74L90.3 31.74L90.3 27.09Z" fill="#000000" fill-opacity="1.000000" fill-rule="evenodd"/>
		<path id="Vector" d="M94.81 27.09L99.46 27.09L99.46 31.74L94.81 31.74L94.81 27.09Z" fill="#000000" fill-opacity="1.000000" fill-rule="evenodd"/>
		<path id="Vector" d="M45.15 31.6L49.8 31.6L49.8 36.25L45.15 36.25L45.15 31.6Z" fill="#000000" fill-opacity="1.000000" fill-rule="evenodd"/>
		<path id="Vector" d="M54.18 31.6L58.83 31.6L58.83 36.25L54.18 36.25L54.18 31.6Z" fill="#000000" fill-opacity="1.000000" fill-rule="evenodd"/>
		<path id="Vector" d="M63.21 31.6L67.86 31.6L67.86 36.25L63.21 36.25L63.21 31.6Z" fill="#000000" fill-opacity="1.000000" fill-rule="evenodd"/>
		<path id="Vector" d="M67.72 31.6L72.37 31.6L72.37 36.25L67.72 36.25L67.72 31.6Z" fill="#000000" fill-opacity="1.000000" fill-rule="evenodd"/>
		<path id="Vector" d="M76.75 31.6L81.4 31.6L81.4 36.25L76.75 36.25L76.75 31.6Z" fill="#000000" fill-opacity="1.000000" fill-rule="evenodd"/>
		<path id="Vector" d="M81.27 31.6L85.92 31.6L85.92 36.25L81.27 36.25L81.27 31.6Z" fill="#000000" fill-opacity="1.000000" fill-rule="evenodd"/>
		<path id="Vector" d="M90.3 31.6L94.95 31.6L94.95 36.25L90.3 36.25L90.3 31.6Z" fill="#000000" fill-opacity="1.000000" fill-rule="evenodd"/>
		<path id="Vector" d="M45.15 36.12L49.8 36.12L49.8 40.77L45.15 40.77L45.15 36.12Z" fill="#000000" fill-opacity="1.000000" fill-rule="evenodd"/>
		<path id="Vector" d="M54.18 36.12L58.83 36.12L58.83 40.77L54.18 40.77L54.18 36.12Z" fill="#000000" fill-opacity="1.000000" fill-rule="evenodd"/>
		<path id="Vector" d="M63.21 36.12L67.86 36.12L67.86 40.77L63.21 40.77L63.21 36.12Z" fill="#000000" fill-opacity="1.000000" fill-rule="evenodd"/>
		<path id="Vector" d="M72.24 36.12L76.89 36.12L76.89 40.77L72.24 40.77L72.24 36.12Z" fill="#000000" fill-opacity="1.000000" fill-rule="evenodd"/>
		<path id="Vector" d="M81.27 36.12L85.92 36.12L85.92 40.77L81.27 40.77L81.27 36.12Z" fill="#000000" fill-opacity="1.000000" fill-rule="evenodd"/>
		<path id="Vector" d="M90.3 36.12L94.95 36.12L94.95 40.77L90.3 40.77L90.3 36.12Z" fill="#000000" fill-opacity="1.000000" fill-rule="evenodd"/>
		<path id="Vector" d="M99.33 36.12L103.98 36.12L103.98 40.77L99.33 40.77L99.33 36.12Z" fill="#000000" fill-opacity="1.000000" fill-rule="evenodd"/>
		<path id="Vector" d="M45.15 40.63L49.8 40.63L49.8 45.28L45.15 45.28L45.15 40.63Z" fill="#000000" fill-opacity="1.000000" fill-rule="evenodd"/>
		<path id="Vector" d="M49.66 40.63L54.31 40.63L54.31 45.28L49.66 45.28L49.66 40.63Z" fill="#000000" fill-opacity="1.000000" fill-rule="evenodd"/>
		<path id="Vector" d="M58.69 40.63L63.34 40.63L63.34 45.28L58.69 45.28L58.69 40.63Z" fill="#000000" fill-opacity="1.000000" fill-rule="evenodd"/>
		<path id="Vector" d="M63.21 40.63L67.86 40.63L67.86 45.28L63.21 45.28L63.21 40.63Z" fill="#000000" fill-opacity="1.000000" fill-rule="evenodd"/>
		<path id="Vector" d="M67.72 40.63L72.37 40.63L72.37 45.28L67.72 45.28L67.72 40.63Z" fill="#000000" fill-opacity="1.000000" fill-rule="evenodd"/>
		<path id="Vector" d="M76.75 40.63L81.4 40.63L81.4 45.28L76.75 45.28L76.75 40.63Z" fill="#000000" fill-opacity="1.000000" fill-rule="evenodd"/>
		<path id="Vector" d="M81.27 40.63L85.92 40.63L85.92 45.28L81.27 45.28L81.27 40.63Z" fill="#000000" fill-opacity="1.000000" fill-rule="evenodd"/>
		<path id="Vector" d="M94.81 40.63L99.46 40.63L99.46 45.28L94.81 45.28L94.81 40.63Z" fill="#000000" fill-opacity="1.000000" fill-rule="evenodd"/>
		<path id="Vector" d="M18.06 45.15L22.71 45.15L22.71 49.8L18.06 49.8L18.06 45.15Z" fill="#000000" fill-opacity="1.000000" fill-rule="evenodd"/>
		<path id="Vector" d="M22.57 45.15L27.22 45.15L27.22 49.8L22.57 49.8L22.57 45.15Z" fill="#000000" fill-opacity="1.000000" fill-rule="evenodd"/>
		<path id="Vector" d="M27.09 45.15L31.74 45.15L31.74 49.8L27.09 49.8L27.09 45.15Z" fill="#000000" fill-opacity="1.000000" fill-rule="evenodd"/>
		<path id="Vector" d="M36.12 45.15L40.77 45.15L40.77 49.8L36.12 49.8L36.12 45.15Z" fill="#000000" fill-opacity="1.000000" fill-rule="evenodd"/>
		<path id="Vector" d="M45.15 45.15L49.8 45.15L49.8 49.8L45.15 49.8L45.15 45.15Z" fill="#000000" fill-opacity="1.000000" fill-rule="evenodd"/>
		<path id="Vector" d="M63.21 45.15L67.86 45.15L67.86 49.8L63.21 49.8L63.21 45.15Z" fill="#000000" fill-opacity="1.000000" fill-rule="evenodd"/>
		<path id="Vector" d="M67.72 45.15L72.37 45.15L72.37 49.8L67.72 49.8L67.72 45.15Z" fill="#000000" fill-opacity="1.000000" fill-rule="evenodd"/>
		<path id="Vector" d="M72.24 45.15L76.89 45.15L76.89 49.8L72.24 49.8L72.24 45.15Z" fill="#000000" fill-opacity="1.000000" fill-rule="evenodd"/>
		<path id="Vector" d="M76.75 45.15L81.4 45.15L81.4 49.8L76.75 49.8L76.75 45.15Z" fill="#000000" fill-opacity="1.000000" fill-rule="evenodd"/>
		<path id="Vector" d="M81.27 45.15L85.92 45.15L85.92 49.8L81.27 49.8L81.27 45.15Z" fill="#000000" fill-opacity="1.000000" fill-rule="evenodd"/>
		<path id="Vector" d="M90.3 45.15L94.95 45.15L94.95 49.8L90.3 49.8L90.3 45.15Z" fill="#000000" fill-opacity="1.000000" fill-rule="evenodd"/>
		<path id="Vector" d="M103.84 45.15L108.49 45.15L108.49 49.8L103.84 49.8L103.84 45.15Z" fill="#000000" fill-opacity="1.000000" fill-rule="evenodd"/>
		<path id="Vector" d="M108.36 45.15L113.01 45.15L113.01 49.8L108.36 49.8L108.36 45.15Z" fill="#000000" fill-opacity="1.000000" fill-rule="evenodd"/>
		<path id="Vector" d="M112.87 45.15L117.52 45.15L117.52 49.8L112.87 49.8L112.87 45.15Z" fill="#000000" fill-opacity="1.000000" fill-rule="evenodd"/>
		<path id="Vector" d="M126.42 45.15L131.07 45.15L131.07 49.8L126.42 49.8L126.42 45.15Z" fill="#000000" fill-opacity="1.000000" fill-rule="evenodd"/>
		<path id="Vector" d="M130.93 45.15L135.59 45.15L135.59 49.8L130.93 49.8L130.93 45.15Z" fill="#000000" fill-opacity="1.000000" fill-rule="evenodd"/>
		<path id="Vector" d="M135.45 45.15L140.1 45.15L140.1 49.8L135.45 49.8L135.45 45.15Z" fill="#000000" fill-opacity="1.000000" fill-rule="evenodd"/>
		<path id="Vector" d="M13.54 49.66L18.19 49.66L18.19 54.31L13.54 54.31L13.54 49.66Z" fill="#000000" fill-opacity="1.000000" fill-rule="evenodd"/>
		<path id="Vector" d="M22.57 49.66L27.22 49.66L27.22 54.31L22.57 54.31L22.57 49.66Z" fill="#000000" fill-opacity="1.000000" fill-rule="evenodd"/>
		<path id="Vector" d="M40.63 49.66L45.28 49.66L45.28 54.31L40.63 54.31L40.63 49.66Z" fill="#000000" fill-opacity="1.000000" fill-rule="evenodd"/>
		<path id="Vector" d="M49.66 49.66L54.31 49.66L54.31 54.31L49.66 54.31L49.66 49.66Z" fill="#000000" fill-opacity="1.000000" fill-rule="evenodd"/>
		<path id="Vector" d="M72.24 49.66L76.89 49.66L76.89 54.31L72.24 54.31L72.24 49.66Z" fill="#000000" fill-opacity="1.000000" fill-rule="evenodd"/>
		<path id="Vector" d="M81.27 49.66L85.92 49.66L85.92 54.31L81.27 54.31L81.27 49.66Z" fill="#000000" fill-opacity="1.000000" fill-rule="evenodd"/>
		<path id="Vector" d="M85.78 49.66L90.43 49.66L90.43 54.31L85.78 54.31L85.78 49.66Z" fill="#000000" fill-opacity="1.000000" fill-rule="evenodd"/>
		<path id="Vector" d="M103.84 49.66L108.49 49.66L108.49 54.31L103.84 54.31L103.84 49.66Z" fill="#000000" fill-opacity="1.000000" fill-rule="evenodd"/>
		<path id="Vector" d="M108.36 49.66L113.01 49.66L113.01 54.31L108.36 54.31L108.36 49.66Z" fill="#000000" fill-opacity="1.000000" fill-rule="evenodd"/>
		<path id="Vector" d="M112.87 49.66L117.52 49.66L117.52 54.31L112.87 54.31L112.87 49.66Z" fill="#000000" fill-opacity="1.000000" fill-rule="evenodd"/>
		<path id="Vector" d="M117.39 49.66L122.04 49.66L122.04 54.31L117.39 54.31L117.39 49.66Z" fill="#000000" fill-opacity="1.000000" fill-rule="evenodd"/>
		<path id="Vector" d="M121.9 49.66L126.56 49.66L126.56 54.31L121.9 54.31L121.9 49.66Z" fill="#000000" fill-opacity="1.000000" fill-rule="evenodd"/>
		<path id="Vector" d="M126.42 49.66L131.07 49.66L131.07 54.31L126.42 54.31L126.42 49.66Z" fill="#000000" fill-opacity="1.000000" fill-rule="evenodd"/>
		<path id="Vector" d="M135.45 49.66L140.1 49.66L140.1 54.31L135.45 54.31L135.45 49.66Z" fill="#000000" fill-opacity="1.000000" fill-rule="evenodd"/>
		<path id="Vector" d="M13.54 54.18L18.19 54.18L18.19 58.83L13.54 58.83L13.54 54.18Z" fill="#000000" fill-opacity="1.000000" fill-rule="evenodd"/>
		<path id="Vector" d="M18.06 54.18L22.71 54.18L22.71 58.83L18.06 58.83L18.06 54.18Z" fill="#000000" fill-opacity="1.000000" fill-rule="evenodd"/>
		<path id="Vector" d="M22.57 54.18L27.22 54.18L27.22 58.83L22.57 58.83L22.57 54.18Z" fill="#000000" fill-opacity="1.000000" fill-rule="evenodd"/>
		<path id="Vector" d="M27.09 54.18L31.74 54.18L31.74 58.83L27.09 58.83L27.09 54.18Z" fill="#000000" fill-opacity="1.000000" fill-rule="evenodd"/>
		<path id="Vector" d="M31.6 54.18L36.25 54.18L36.25 58.83L31.6 58.83L31.6 54.18Z" fill="#000000" fill-opacity="1.000000" fill-rule="evenodd"/>
		<path id="Vector" d="M36.12 54.18L40.77 54.18L40.77 58.83L36.12 58.83L36.12 54.18Z" fill="#000000" fill-opacity="1.000000" fill-rule="evenodd"/>
		<path id="Vector" d="M40.63 54.18L45.28 54.18L45.28 58.83L40.63 58.83L40.63 54.18Z" fill="#000000" fill-opacity="1.000000" fill-rule="evenodd"/>
		<path id="Vector" d="M45.15 54.18L49.8 54.18L49.8 58.83L45.15 58.83L45.15 54.18Z" fill="#000000" fill-opacity="1.000000" fill-rule="evenodd"/>
		<path id="Vector" d="M54.18 54.18L58.83 54.18L58.83 58.83L54.18 58.83L54.18 54.18Z" fill="#000000" fill-opacity="1.000000" fill-rule="evenodd"/>
		<path id="Vector" d="M63.21 54.18L67.86 54.18L67.86 58.83L63.21 58.83L63.21 54.18Z" fill="#000000" fill-opacity="1.000000" fill-rule="evenodd"/>
		<path id="Vector" d="M67.72 54.18L72.37 54.18L72.37 58.83L67.72 58.83L67.72 54.18Z" fill="#000000" fill-opacity="1.000000" fill-rule="evenodd"/>
		<path id="Vector" d="M72.24 54.18L76.89 54.18L76.89 58.83L72.24 58.83L72.24 54.18Z" fill="#000000" fill-opacity="1.000000" fill-rule="evenodd"/>
		<path id="Vector" d="M103.84 54.18L108.49 54.18L108.49 58.83L103.84 58.83L103.84 54.18Z" fill="#000000" fill-opacity="1.000000" fill-rule="evenodd"/>
		<path id="Vector" d="M108.36 54.18L113.01 54.18L113.01 58.83L108.36 58.83L108.36 54.18Z" fill="#000000" fill-opacity="1.000000" fill-rule="evenodd"/>
		<path id="Vector" d="M112.87 54.18L117.52 54.18L117.52 58.83L112.87 58.83L112.87 54.18Z" fill="#000000" fill-opacity="1.000000" fill-rule="evenodd"/>
		<path id="Vector" d="M126.42 54.18L131.07 54.18L131.07 58.83L126.42 58.83L126.42 54.18Z" fill="#000000" fill-opacity="1.000000" fill-rule="evenodd"/>
		<path id="Vector" d="M18.06 58.69L22.71 58.69L22.71 63.34L18.06 63.34L18.06 58.69Z" fill="#000000" fill-opacity="1.000000" fill-rule="evenodd"/>
		<path id="Vector" d="M22.57 58.69L27.22 58.69L27.22 63.34L22.57 63.34L22.57 58.69Z" fill="#000000" fill-opacity="1.000000" fill-rule="evenodd"/>
		<path id="Vector" d="M49.66 58.69L54.31 58.69L54.31 63.34L49.66 63.34L49.66 58.69Z" fill="#000000" fill-opacity="1.000000" fill-rule="evenodd"/>
		<path id="Vector" d="M54.18 58.69L58.83 58.69L58.83 63.34L54.18 63.34L54.18 58.69Z" fill="#000000" fill-opacity="1.000000" fill-rule="evenodd"/>
		<path id="Vector" d="M63.21 58.69L67.86 58.69L67.86 63.34L63.21 63.34L63.21 58.69Z" fill="#000000" fill-opacity="1.000000" fill-rule="evenodd"/>
		<path id="Vector" d="M76.75 58.69L81.4 58.69L81.4 63.34L76.75 63.34L76.75 58.69Z" fill="#000000" fill-opacity="1.000000" fill-rule="evenodd"/>
		<path id="Vector" d="M85.78 58.69L90.43 58.69L90.43 63.34L85.78 63.34L85.78 58.69Z" fill="#000000" fill-opacity="1.000000" fill-rule="evenodd"/>
		<path id="Vector" d="M103.84 58.69L108.49 58.69L108.49 63.34L103.84 63.34L103.84 58.69Z" fill="#000000" fill-opacity="1.000000" fill-rule="evenodd"/>
		<path id="Vector" d="M108.36 58.69L113.01 58.69L113.01 63.34L108.36 63.34L108.36 58.69Z" fill="#000000" fill-opacity="1.000000" fill-rule="evenodd"/>
		<path id="Vector" d="M117.39 58.69L122.04 58.69L122.04 63.34L117.39 63.34L117.39 58.69Z" fill="#000000" fill-opacity="1.000000" fill-rule="evenodd"/>
		<path id="Vector" d="M121.9 58.69L126.56 58.69L126.56 63.34L121.9 63.34L121.9 58.69Z" fill="#000000" fill-opacity="1.000000" fill-rule="evenodd"/>
		<path id="Vector" d="M130.93 58.69L135.59 58.69L135.59 63.34L130.93 63.34L130.93 58.69Z" fill="#000000" fill-opacity="1.000000" fill-rule="evenodd"/>
		<path id="Vector" d="M13.54 63.21L18.19 63.21L18.19 67.86L13.54 67.86L13.54 63.21Z" fill="#000000" fill-opacity="1.000000" fill-rule="evenodd"/>
		<path id="Vector" d="M22.57 63.21L27.22 63.21L27.22 67.86L22.57 67.86L22.57 63.21Z" fill="#000000" fill-opacity="1.000000" fill-rule="evenodd"/>
		<path id="Vector" d="M27.09 63.21L31.74 63.21L31.74 67.86L27.09 67.86L27.09 63.21Z" fill="#000000" fill-opacity="1.000000" fill-rule="evenodd"/>
		<path id="Vector" d="M31.6 63.21L36.25 63.21L36.25 67.86L31.6 67.86L31.6 63.21Z" fill="#000000" fill-opacity="1.000000" fill-rule="evenodd"/>
		<path id="Vector" d="M36.12 63.21L40.77 63.21L40.77 67.86L36.12 67.86L36.12 63.21Z" fill="#000000" fill-opacity="1.000000" fill-rule="evenodd"/>
		<path id="Vector" d="M40.63 63.21L45.28 63.21L45.28 67.86L40.63 67.86L40.63 63.21Z" fill="#000000" fill-opacity="1.000000" fill-rule="evenodd"/>
		<path id="Vector" d="M45.15 63.21L49.8 63.21L49.8 67.86L45.15 67.86L45.15 63.21Z" fill="#000000" fill-opacity="1.000000" fill-rule="evenodd"/>
		<path id="Vector" d="M67.72 63.21L72.37 63.21L72.37 67.86L67.72 67.86L67.72 63.21Z" fill="#000000" fill-opacity="1.000000" fill-rule="evenodd"/>
		<path id="Vector" d="M72.24 63.21L76.89 63.21L76.89 67.86L72.24 67.86L72.24 63.21Z" fill="#000000" fill-opacity="1.000000" fill-rule="evenodd"/>
		<path id="Vector" d="M76.75 63.21L81.4 63.21L81.4 67.86L76.75 67.86L76.75 63.21Z" fill="#000000" fill-opacity="1.000000" fill-rule="evenodd"/>
		<path id="Vector" d="M81.27 63.21L85.92 63.21L85.92 67.86L81.27 67.86L81.27 63.21Z" fill="#000000" fill-opacity="1.000000" fill-rule="evenodd"/>
		<path id="Vector" d="M94.81 63.21L99.46 63.21L99.46 67.86L94.81 67.86L94.81 63.21Z" fill="#000000" fill-opacity="1.000000" fill-rule="evenodd"/>
		<path id="Vector" d="M99.33 63.21L103.98 63.21L103.98 67.86L99.33 67.86L99.33 63.21Z" fill="#000000" fill-opacity="1.000000" fill-rule="evenodd"/>
		<path id="Vector" d="M103.84 63.21L108.49 63.21L108.49 67.86L103.84 67.86L103.84 63.21Z" fill="#000000" fill-opacity="1.000000" fill-rule="evenodd"/>
		<path id="Vector" d="M112.87 63.21L117.52 63.21L117.52 67.86L112.87 67.86L112.87 63.21Z" fill="#000000" fill-opacity="1.000000" fill-rule="evenodd"/>
		<path id="Vector" d="M126.42 63.21L131.07 63.21L131.07 67.86L126.42 67.86L126.42 63.21Z" fill="#000000" fill-opacity="1.000000" fill-rule="evenodd"/>
		<path id="Vector" d="M130.93 63.21L135.59 63.21L135.59 67.86L130.93 67.86L130.93 63.21Z" fill="#000000" fill-opacity="1.000000" fill-rule="evenodd"/>
		<path id="Vector" d="M135.45 63.21L140.1 63.21L140.1 67.86L135.45 67.86L135.45 63.21Z" fill="#000000" fill-opacity="1.000000" fill-rule="evenodd"/>
		<path id="Vector" d="M18.06 67.72L22.71 67.72L22.71 72.37L18.06 72.37L18.06 67.72Z" fill="#000000" fill-opacity="1.000000" fill-rule="evenodd"/>
		<path id="Vector" d="M22.57 67.72L27.22 67.72L27.22 72.37L22.57 72.37L22.57 67.72Z" fill="#000000" fill-opacity="1.000000" fill-rule="evenodd"/>
		<path id="Vector" d="M27.09 67.72L31.74 67.72L31.74 72.37L27.09 72.37L27.09 67.72Z" fill="#000000" fill-opacity="1.000000" fill-rule="evenodd"/>
		<path id="Vector" d="M31.6 67.72L36.25 67.72L36.25 72.37L31.6 72.37L31.6 67.72Z" fill="#000000" fill-opacity="1.000000" fill-rule="evenodd"/>
		<path id="Vector" d="M40.63 67.72L45.28 67.72L45.28 72.37L40.63 72.37L40.63 67.72Z" fill="#000000" fill-opacity="1.000000" fill-rule="evenodd"/>
		<path id="Vector" d="M49.66 67.72L54.31 67.72L54.31 72.37L49.66 72.37L49.66 67.72Z" fill="#000000" fill-opacity="1.000000" fill-rule="evenodd"/>
		<path id="Vector" d="M54.18 67.72L58.83 67.72L58.83 72.37L54.18 72.37L54.18 67.72Z" fill="#000000" fill-opacity="1.000000" fill-rule="evenodd"/>
		<path id="Vector" d="M63.21 67.72L67.86 67.72L67.86 72.37L63.21 72.37L63.21 67.72Z" fill="#000000" fill-opacity="1.000000" fill-rule="evenodd"/>
		<path id="Vector" d="M67.72 67.72L72.37 67.72L72.37 72.37L67.72 72.37L67.72 67.72Z" fill="#000000" fill-opacity="1.000000" fill-rule="evenodd"/>
		<path id="Vector" d="M76.75 67.72L81.4 67.72L81.4 72.37L76.75 72.37L76.75 67.72Z" fill="#000000" fill-opacity="1.000000" fill-rule="evenodd"/>
		<path id="Vector" d="M90.3 67.72L94.95 67.72L94.95 72.37L90.3 72.37L90.3 67.72Z" fill="#000000" fill-opacity="1.000000" fill-rule="evenodd"/>
		<path id="Vector" d="M94.81 67.72L99.46 67.72L99.46 72.37L94.81 72.37L94.81 67.72Z" fill="#000000" fill-opacity="1.000000" fill-rule="evenodd"/>
		<path id="Vector" d="M99.33 67.72L103.98 67.72L103.98 72.37L99.33 72.37L99.33 67.72Z" fill="#000000" fill-opacity="1.000000" fill-rule="evenodd"/>
		<path id="Vector" d="M103.84 67.72L108.49 67.72L108.49 72.37L103.84 72.37L103.84 67.72Z" fill="#000000" fill-opacity="1.000000" fill-rule="evenodd"/>
		<path id="Vector" d="M108.36 67.72L113.01 67.72L113.01 72.37L108.36 72.37L108.36 67.72Z" fill="#000000" fill-opacity="1.000000" fill-rule="evenodd"/>
		<path id="Vector" d="M117.39 67.72L122.04 67.72L122.04 72.37L117.39 72.37L117.39 67.72Z" fill="#000000" fill-opacity="1.000000" fill-rule="evenodd"/>
		<path id="Vector" d="M121.9 67.72L126.56 67.72L126.56 72.37L121.9 72.37L121.9 67.72Z" fill="#000000" fill-opacity="1.000000" fill-rule="evenodd"/>
		<path id="Vector" d="M130.93 67.72L135.59 67.72L135.59 72.37L130.93 72.37L130.93 67.72Z" fill="#000000" fill-opacity="1.000000" fill-rule="evenodd"/>
		<path id="Vector" d="M135.45 67.72L140.1 67.72L140.1 72.37L135.45 72.37L135.45 67.72Z" fill="#000000" fill-opacity="1.000000" fill-rule="evenodd"/>
		<path id="Vector" d="M13.54 72.24L18.19 72.24L18.19 76.89L13.54 76.89L13.54 72.24Z" fill="#000000" fill-opacity="1.000000" fill-rule="evenodd"/>
		<path id="Vector" d="M27.09 72.24L31.74 72.24L31.74 76.89L27.09 76.89L27.09 72.24Z" fill="#000000" fill-opacity="1.000000" fill-rule="evenodd"/>
		<path id="Vector" d="M36.12 72.24L40.77 72.24L40.77 76.89L36.12 76.89L36.12 72.24Z" fill="#000000" fill-opacity="1.000000" fill-rule="evenodd"/>
		<path id="Vector" d="M45.15 72.24L49.8 72.24L49.8 76.89L45.15 76.89L45.15 72.24Z" fill="#000000" fill-opacity="1.000000" fill-rule="evenodd"/>
		<path id="Vector" d="M49.66 72.24L54.31 72.24L54.31 76.89L49.66 76.89L49.66 72.24Z" fill="#000000" fill-opacity="1.000000" fill-rule="evenodd"/>
		<path id="Vector" d="M54.18 72.24L58.83 72.24L58.83 76.89L54.18 76.89L54.18 72.24Z" fill="#000000" fill-opacity="1.000000" fill-rule="evenodd"/>
		<path id="Vector" d="M63.21 72.24L67.86 72.24L67.86 76.89L63.21 76.89L63.21 72.24Z" fill="#000000" fill-opacity="1.000000" fill-rule="evenodd"/>
		<path id="Vector" d="M67.72 72.24L72.37 72.24L72.37 76.89L67.72 76.89L67.72 72.24Z" fill="#000000" fill-opacity="1.000000" fill-rule="evenodd"/>
		<path id="Vector" d="M90.3 72.24L94.95 72.24L94.95 76.89L90.3 76.89L90.3 72.24Z" fill="#000000" fill-opacity="1.000000" fill-rule="evenodd"/>
		<path id="Vector" d="M99.33 72.24L103.98 72.24L103.98 76.89L99.33 76.89L99.33 72.24Z" fill="#000000" fill-opacity="1.000000" fill-rule="evenodd"/>
		<path id="Vector" d="M108.36 72.24L113.01 72.24L113.01 76.89L108.36 76.89L108.36 72.24Z" fill="#000000" fill-opacity="1.000000" fill-rule="evenodd"/>
		<path id="Vector" d="M112.87 72.24L117.52 72.24L117.52 76.89L112.87 76.89L112.87 72.24Z" fill="#000000" fill-opacity="1.000000" fill-rule="evenodd"/>
		<path id="Vector" d="M9.03 76.75L13.68 76.75L13.68 81.4L9.03 81.4L9.03 76.75Z" fill="#000000" fill-opacity="1.000000" fill-rule="evenodd"/>
		<path id="Vector" d="M18.06 76.75L22.71 76.75L22.71 81.4L18.06 81.4L18.06 76.75Z" fill="#000000" fill-opacity="1.000000" fill-rule="evenodd"/>
		<path id="Vector" d="M31.6 76.75L36.25 76.75L36.25 81.4L31.6 81.4L31.6 76.75Z" fill="#000000" fill-opacity="1.000000" fill-rule="evenodd"/>
		<path id="Vector" d="M40.63 76.75L45.28 76.75L45.28 81.4L40.63 81.4L40.63 76.75Z" fill="#000000" fill-opacity="1.000000" fill-rule="evenodd"/>
		<path id="Vector" d="M45.15 76.75L49.8 76.75L49.8 81.4L45.15 81.4L45.15 76.75Z" fill="#000000" fill-opacity="1.000000" fill-rule="evenodd"/>
		<path id="Vector" d="M49.66 76.75L54.31 76.75L54.31 81.4L49.66 81.4L49.66 76.75Z" fill="#000000" fill-opacity="1.000000" fill-rule="evenodd"/>
		<path id="Vector" d="M63.21 76.75L67.86 76.75L67.86 81.4L63.21 81.4L63.21 76.75Z" fill="#000000" fill-opacity="1.000000" fill-rule="evenodd"/>
		<path id="Vector" d="M67.72 76.75L72.37 76.75L72.37 81.4L67.72 81.4L67.72 76.75Z" fill="#000000" fill-opacity="1.000000" fill-rule="evenodd"/>
		<path id="Vector" d="M76.75 76.75L81.4 76.75L81.4 81.4L76.75 81.4L76.75 76.75Z" fill="#000000" fill-opacity="1.000000" fill-rule="evenodd"/>
		<path id="Vector" d="M85.78 76.75L90.43 76.75L90.43 81.4L85.78 81.4L85.78 76.75Z" fill="#000000" fill-opacity="1.000000" fill-rule="evenodd"/>
		<path id="Vector" d="M90.3 76.75L94.95 76.75L94.95 81.4L90.3 81.4L90.3 76.75Z" fill="#000000" fill-opacity="1.000000" fill-rule="evenodd"/>
		<path id="Vector" d="M103.84 76.75L108.49 76.75L108.49 81.4L103.84 81.4L103.84 76.75Z" fill="#000000" fill-opacity="1.000000" fill-rule="evenodd"/>
		<path id="Vector" d="M117.39 76.75L122.04 76.75L122.04 81.4L117.39 81.4L117.39 76.75Z" fill="#000000" fill-opacity="1.000000" fill-rule="evenodd"/>
		<path id="Vector" d="M121.9 76.75L126.56 76.75L126.56 81.4L121.9 81.4L121.9 76.75Z" fill="#000000" fill-opacity="1.000000" fill-rule="evenodd"/>
		<path id="Vector" d="M9.03 81.27L13.68 81.27L13.68 85.92L9.03 85.92L9.03 81.27Z" fill="#000000" fill-opacity="1.000000" fill-rule="evenodd"/>
		<path id="Vector" d="M13.54 81.27L18.19 81.27L18.19 85.92L13.54 85.92L13.54 81.27Z" fill="#000000" fill-opacity="1.000000" fill-rule="evenodd"/>
		<path id="Vector" d="M18.06 81.27L22.71 81.27L22.71 85.92L18.06 85.92L18.06 81.27Z" fill="#000000" fill-opacity="1.000000" fill-rule="evenodd"/>
		<path id="Vector" d="M22.57 81.27L27.22 81.27L27.22 85.92L22.57 85.92L22.57 81.27Z" fill="#000000" fill-opacity="1.000000" fill-rule="evenodd"/>
		<path id="Vector" d="M31.6 81.27L36.25 81.27L36.25 85.92L31.6 85.92L31.6 81.27Z" fill="#000000" fill-opacity="1.000000" fill-rule="evenodd"/>
		<path id="Vector" d="M36.12 81.27L40.77 81.27L40.77 85.92L36.12 85.92L36.12 81.27Z" fill="#000000" fill-opacity="1.000000" fill-rule="evenodd"/>
		<path id="Vector" d="M40.63 81.27L45.28 81.27L45.28 85.92L40.63 85.92L40.63 81.27Z" fill="#000000" fill-opacity="1.000000" fill-rule="evenodd"/>
		<path id="Vector" d="M45.15 81.27L49.8 81.27L49.8 85.92L45.15 85.92L45.15 81.27Z" fill="#000000" fill-opacity="1.000000" fill-rule="evenodd"/>
		<path id="Vector" d="M54.18 81.27L58.83 81.27L58.83 85.92L54.18 85.92L54.18 81.27Z" fill="#000000" fill-opacity="1.000000" fill-rule="evenodd"/>
		<path id="Vector" d="M58.69 81.27L63.34 81.27L63.34 85.92L58.69 85.92L58.69 81.27Z" fill="#000000" fill-opacity="1.000000" fill-rule="evenodd"/>
		<path id="Vector" d="M63.21 81.27L67.86 81.27L67.86 85.92L63.21 85.92L63.21 81.27Z" fill="#000000" fill-opacity="1.000000" fill-rule="evenodd"/>
		<path id="Vector" d="M67.72 81.27L72.37 81.27L72.37 85.92L67.72 85.92L67.72 81.27Z" fill="#000000" fill-opacity="1.000000" fill-rule="evenodd"/>
		<path id="Vector" d="M85.78 81.27L90.43 81.27L90.43 85.92L85.78 85.92L85.78 81.27Z" fill="#000000" fill-opacity="1.000000" fill-rule="evenodd"/>
		<path id="Vector" d="M112.87 81.27L117.52 81.27L117.52 85.92L112.87 85.92L112.87 81.27Z" fill="#000000" fill-opacity="1.000000" fill-rule="evenodd"/>
		<path id="Vector" d="M121.9 81.27L126.56 81.27L126.56 85.92L121.9 85.92L121.9 81.27Z" fill="#000000" fill-opacity="1.000000" fill-rule="evenodd"/>
		<path id="Vector" d="M126.42 81.27L131.07 81.27L131.07 85.92L126.42 85.92L126.42 81.27Z" fill="#000000" fill-opacity="1.000000" fill-rule="evenodd"/>
		<path id="Vector" d="M130.93 81.27L135.59 81.27L135.59 85.92L130.93 85.92L130.93 81.27Z" fill="#000000" fill-opacity="1.000000" fill-rule="evenodd"/>
		<path id="Vector" d="M135.45 81.27L140.1 81.27L140.1 85.92L135.45 85.92L135.45 81.27Z" fill="#000000" fill-opacity="1.000000" fill-rule="evenodd"/>
		<path id="Vector" d="M9.03 85.78L13.68 85.78L13.68 90.43L9.03 90.43L9.03 85.78Z" fill="#000000" fill-opacity="1.000000" fill-rule="evenodd"/>
		<path id="Vector" d="M27.09 85.78L31.74 85.78L31.74 90.43L27.09 90.43L27.09 85.78Z" fill="#000000" fill-opacity="1.000000" fill-rule="evenodd"/>
		<path id="Vector" d="M58.69 85.78L63.34 85.78L63.34 90.43L58.69 90.43L58.69 85.78Z" fill="#000000" fill-opacity="1.000000" fill-rule="evenodd"/>
		<path id="Vector" d="M63.21 85.78L67.86 85.78L67.86 90.43L63.21 90.43L63.21 85.78Z" fill="#000000" fill-opacity="1.000000" fill-rule="evenodd"/>
		<path id="Vector" d="M72.24 85.78L76.89 85.78L76.89 90.43L72.24 90.43L72.24 85.78Z" fill="#000000" fill-opacity="1.000000" fill-rule="evenodd"/>
		<path id="Vector" d="M81.27 85.78L85.92 85.78L85.92 90.43L81.27 90.43L81.27 85.78Z" fill="#000000" fill-opacity="1.000000" fill-rule="evenodd"/>
		<path id="Vector" d="M94.81 85.78L99.46 85.78L99.46 90.43L94.81 90.43L94.81 85.78Z" fill="#000000" fill-opacity="1.000000" fill-rule="evenodd"/>
		<path id="Vector" d="M99.33 85.78L103.98 85.78L103.98 90.43L99.33 90.43L99.33 85.78Z" fill="#000000" fill-opacity="1.000000" fill-rule="evenodd"/>
		<path id="Vector" d="M108.36 85.78L113.01 85.78L113.01 90.43L108.36 90.43L108.36 85.78Z" fill="#000000" fill-opacity="1.000000" fill-rule="evenodd"/>
		<path id="Vector" d="M112.87 85.78L117.52 85.78L117.52 90.43L112.87 90.43L112.87 85.78Z" fill="#000000" fill-opacity="1.000000" fill-rule="evenodd"/>
		<path id="Vector" d="M117.39 85.78L122.04 85.78L122.04 90.43L117.39 90.43L117.39 85.78Z" fill="#000000" fill-opacity="1.000000" fill-rule="evenodd"/>
		<path id="Vector" d="M126.42 85.78L131.07 85.78L131.07 90.43L126.42 90.43L126.42 85.78Z" fill="#000000" fill-opacity="1.000000" fill-rule="evenodd"/>
		<path id="Vector" d="M130.93 85.78L135.59 85.78L135.59 90.43L130.93 90.43L130.93 85.78Z" fill="#000000" fill-opacity="1.000000" fill-rule="evenodd"/>
		<path id="Vector" d="M135.45 85.78L140.1 85.78L140.1 90.43L135.45 90.43L135.45 85.78Z" fill="#000000" fill-opacity="1.000000" fill-rule="evenodd"/>
		<path id="Vector" d="M9.03 90.3L13.68 90.3L13.68 94.95L9.03 94.95L9.03 90.3Z" fill="#000000" fill-opacity="1.000000" fill-rule="evenodd"/>
		<path id="Vector" d="M27.09 90.3L31.74 90.3L31.74 94.95L27.09 94.95L27.09 90.3Z" fill="#000000" fill-opacity="1.000000" fill-rule="evenodd"/>
		<path id="Vector" d="M31.6 90.3L36.25 90.3L36.25 94.95L31.6 94.95L31.6 90.3Z" fill="#000000" fill-opacity="1.000000" fill-rule="evenodd"/>
		<path id="Vector" d="M36.12 90.3L40.77 90.3L40.77 94.95L36.12 94.95L36.12 90.3Z" fill="#000000" fill-opacity="1.000000" fill-rule="evenodd"/>
		<path id="Vector" d="M45.15 90.3L49.8 90.3L49.8 94.95L45.15 94.95L45.15 90.3Z" fill="#000000" fill-opacity="1.000000" fill-rule="evenodd"/>
		<path id="Vector" d="M49.66 90.3L54.31 90.3L54.31 94.95L49.66 94.95L49.66 90.3Z" fill="#000000" fill-opacity="1.000000" fill-rule="evenodd"/>
		<path id="Vector" d="M58.69 90.3L63.34 90.3L63.34 94.95L58.69 94.95L58.69 90.3Z" fill="#000000" fill-opacity="1.000000" fill-rule="evenodd"/>
		<path id="Vector" d="M67.72 90.3L72.37 90.3L72.37 94.95L67.72 94.95L67.72 90.3Z" fill="#000000" fill-opacity="1.000000" fill-rule="evenodd"/>
		<path id="Vector" d="M76.75 90.3L81.4 90.3L81.4 94.95L76.75 94.95L76.75 90.3Z" fill="#000000" fill-opacity="1.000000" fill-rule="evenodd"/>
		<path id="Vector" d="M81.27 90.3L85.92 90.3L85.92 94.95L81.27 94.95L81.27 90.3Z" fill="#000000" fill-opacity="1.000000" fill-rule="evenodd"/>
		<path id="Vector" d="M90.3 90.3L94.95 90.3L94.95 94.95L90.3 94.95L90.3 90.3Z" fill="#000000" fill-opacity="1.000000" fill-rule="evenodd"/>
		<path id="Vector" d="M99.33 90.3L103.98 90.3L103.98 94.95L99.33 94.95L99.33 90.3Z" fill="#000000" fill-opacity="1.000000" fill-rule="evenodd"/>
		<path id="Vector" d="M108.36 90.3L113.01 90.3L113.01 94.95L108.36 94.95L108.36 90.3Z" fill="#000000" fill-opacity="1.000000" fill-rule="evenodd"/>
		<path id="Vector" d="M112.87 90.3L117.52 90.3L117.52 94.95L112.87 94.95L112.87 90.3Z" fill="#000000" fill-opacity="1.000000" fill-rule="evenodd"/>
		<path id="Vector" d="M117.39 90.3L122.04 90.3L122.04 94.95L117.39 94.95L117.39 90.3Z" fill="#000000" fill-opacity="1.000000" fill-rule="evenodd"/>
		<path id="Vector" d="M121.9 90.3L126.56 90.3L126.56 94.95L121.9 94.95L121.9 90.3Z" fill="#000000" fill-opacity="1.000000" fill-rule="evenodd"/>
		<path id="Vector" d="M126.42 90.3L131.07 90.3L131.07 94.95L126.42 94.95L126.42 90.3Z" fill="#000000" fill-opacity="1.000000" fill-rule="evenodd"/>
		<path id="Vector" d="M9.03 94.81L13.68 94.81L13.68 99.46L9.03 99.46L9.03 94.81Z" fill="#000000" fill-opacity="1.000000" fill-rule="evenodd"/>
		<path id="Vector" d="M22.57 94.81L27.22 94.81L27.22 99.46L22.57 99.46L22.57 94.81Z" fill="#000000" fill-opacity="1.000000" fill-rule="evenodd"/>
		<path id="Vector" d="M27.09 94.81L31.74 94.81L31.74 99.46L27.09 99.46L27.09 94.81Z" fill="#000000" fill-opacity="1.000000" fill-rule="evenodd"/>
		<path id="Vector" d="M54.18 94.81L58.83 94.81L58.83 99.46L54.18 99.46L54.18 94.81Z" fill="#000000" fill-opacity="1.000000" fill-rule="evenodd"/>
		<path id="Vector" d="M58.69 94.81L63.34 94.81L63.34 99.46L58.69 99.46L58.69 94.81Z" fill="#000000" fill-opacity="1.000000" fill-rule="evenodd"/>
		<path id="Vector" d="M63.21 94.81L67.86 94.81L67.86 99.46L63.21 99.46L63.21 94.81Z" fill="#000000" fill-opacity="1.000000" fill-rule="evenodd"/>
		<path id="Vector" d="M67.72 94.81L72.37 94.81L72.37 99.46L67.72 99.46L67.72 94.81Z" fill="#000000" fill-opacity="1.000000" fill-rule="evenodd"/>
		<path id="Vector" d="M72.24 94.81L76.89 94.81L76.89 99.46L72.24 99.46L72.24 94.81Z" fill="#000000" fill-opacity="1.000000" fill-rule="evenodd"/>
		<path id="Vector" d="M94.81 94.81L99.46 94.81L99.46 99.46L94.81 99.46L94.81 94.81Z" fill="#000000" fill-opacity="1.000000" fill-rule="evenodd"/>
		<path id="Vector" d="M99.33 94.81L103.98 94.81L103.98 99.46L99.33 99.46L99.33 94.81Z" fill="#000000" fill-opacity="1.000000" fill-rule="evenodd"/>
		<path id="Vector" d="M108.36 94.81L113.01 94.81L113.01 99.46L108.36 99.46L108.36 94.81Z" fill="#000000" fill-opacity="1.000000" fill-rule="evenodd"/>
		<path id="Vector" d="M112.87 94.81L117.52 94.81L117.52 99.46L112.87 99.46L112.87 94.81Z" fill="#000000" fill-opacity="1.000000" fill-rule="evenodd"/>
		<path id="Vector" d="M130.93 94.81L135.59 94.81L135.59 99.46L130.93 99.46L130.93 94.81Z" fill="#000000" fill-opacity="1.000000" fill-rule="evenodd"/>
		<path id="Vector" d="M135.45 94.81L140.1 94.81L140.1 99.46L135.45 99.46L135.45 94.81Z" fill="#000000" fill-opacity="1.000000" fill-rule="evenodd"/>
		<path id="Vector" d="M9.03 99.33L13.68 99.33L13.68 103.98L9.03 103.98L9.03 99.33Z" fill="#000000" fill-opacity="1.000000" fill-rule="evenodd"/>
		<path id="Vector" d="M22.57 99.33L27.22 99.33L27.22 103.98L22.57 103.98L22.57 99.33Z" fill="#000000" fill-opacity="1.000000" fill-rule="evenodd"/>
		<path id="Vector" d="M31.6 99.33L36.25 99.33L36.25 103.98L31.6 103.98L31.6 99.33Z" fill="#000000" fill-opacity="1.000000" fill-rule="evenodd"/>
		<path id="Vector" d="M36.12 99.33L40.77 99.33L40.77 103.98L36.12 103.98L36.12 99.33Z" fill="#000000" fill-opacity="1.000000" fill-rule="evenodd"/>
		<path id="Vector" d="M40.63 99.33L45.28 99.33L45.28 103.98L40.63 103.98L40.63 99.33Z" fill="#000000" fill-opacity="1.000000" fill-rule="evenodd"/>
		<path id="Vector" d="M45.15 99.33L49.8 99.33L49.8 103.98L45.15 103.98L45.15 99.33Z" fill="#000000" fill-opacity="1.000000" fill-rule="evenodd"/>
		<path id="Vector" d="M63.21 99.33L67.86 99.33L67.86 103.98L63.21 103.98L63.21 99.33Z" fill="#000000" fill-opacity="1.000000" fill-rule="evenodd"/>
		<path id="Vector" d="M72.24 99.33L76.89 99.33L76.89 103.98L72.24 103.98L72.24 99.33Z" fill="#000000" fill-opacity="1.000000" fill-rule="evenodd"/>
		<path id="Vector" d="M81.27 99.33L85.92 99.33L85.92 103.98L81.27 103.98L81.27 99.33Z" fill="#000000" fill-opacity="1.000000" fill-rule="evenodd"/>
		<path id="Vector" d="M99.33 99.33L103.98 99.33L103.98 103.98L99.33 103.98L99.33 99.33Z" fill="#000000" fill-opacity="1.000000" fill-rule="evenodd"/>
		<path id="Vector" d="M103.84 99.33L108.49 99.33L108.49 103.98L103.84 103.98L103.84 99.33Z" fill="#000000" fill-opacity="1.000000" fill-rule="evenodd"/>
		<path id="Vector" d="M108.36 99.33L113.01 99.33L113.01 103.98L108.36 103.98L108.36 99.33Z" fill="#000000" fill-opacity="1.000000" fill-rule="evenodd"/>
		<path id="Vector" d="M112.87 99.33L117.52 99.33L117.52 103.98L112.87 103.98L112.87 99.33Z" fill="#000000" fill-opacity="1.000000" fill-rule="evenodd"/>
		<path id="Vector" d="M117.39 99.33L122.04 99.33L122.04 103.98L117.39 103.98L117.39 99.33Z" fill="#000000" fill-opacity="1.000000" fill-rule="evenodd"/>
		<path id="Vector" d="M126.42 99.33L131.07 99.33L131.07 103.98L126.42 103.98L126.42 99.33Z" fill="#000000" fill-opacity="1.000000" fill-rule="evenodd"/>
		<path id="Vector" d="M45.15 103.84L49.8 103.84L49.8 108.49L45.15 108.49L45.15 103.84Z" fill="#000000" fill-opacity="1.000000" fill-rule="evenodd"/>
		<path id="Vector" d="M49.66 103.84L54.31 103.84L54.31 108.49L49.66 108.49L49.66 103.84Z" fill="#000000" fill-opacity="1.000000" fill-rule="evenodd"/>
		<path id="Vector" d="M54.18 103.84L58.83 103.84L58.83 108.49L54.18 108.49L54.18 103.84Z" fill="#000000" fill-opacity="1.000000" fill-rule="evenodd"/>
		<path id="Vector" d="M58.69 103.84L63.34 103.84L63.34 108.49L58.69 108.49L58.69 103.84Z" fill="#000000" fill-opacity="1.000000" fill-rule="evenodd"/>
		<path id="Vector" d="M63.21 103.84L67.86 103.84L67.86 108.49L63.21 108.49L63.21 103.84Z" fill="#000000" fill-opacity="1.000000" fill-rule="evenodd"/>
		<path id="Vector" d="M67.72 103.84L72.37 103.84L72.37 108.49L67.72 108.49L67.72 103.84Z" fill="#000000" fill-opacity="1.000000" fill-rule="evenodd"/>
		<path id="Vector" d="M72.24 103.84L76.89 103.84L76.89 108.49L72.24 108.49L72.24 103.84Z" fill="#000000" fill-opacity="1.000000" fill-rule="evenodd"/>
		<path id="Vector" d="M76.75 103.84L81.4 103.84L81.4 108.49L76.75 108.49L76.75 103.84Z" fill="#000000" fill-opacity="1.000000" fill-rule="evenodd"/>
		<path id="Vector" d="M85.78 103.84L90.43 103.84L90.43 108.49L85.78 108.49L85.78 103.84Z" fill="#000000" fill-opacity="1.000000" fill-rule="evenodd"/>
		<path id="Vector" d="M90.3 103.84L94.95 103.84L94.95 108.49L90.3 108.49L90.3 103.84Z" fill="#000000" fill-opacity="1.000000" fill-rule="evenodd"/>
		<path id="Vector" d="M94.81 103.84L99.46 103.84L99.46 108.49L94.81 108.49L94.81 103.84Z" fill="#000000" fill-opacity="1.000000" fill-rule="evenodd"/>
		<path id="Vector" d="M99.33 103.84L103.98 103.84L103.98 108.49L99.33 108.49L99.33 103.84Z" fill="#000000" fill-opacity="1.000000" fill-rule="evenodd"/>
		<path id="Vector" d="M117.39 103.84L122.04 103.84L122.04 108.49L117.39 108.49L117.39 103.84Z" fill="#000000" fill-opacity="1.000000" fill-rule="evenodd"/>
		<path id="Vector" d="M121.9 103.84L126.56 103.84L126.56 108.49L121.9 108.49L121.9 103.84Z" fill="#000000" fill-opacity="1.000000" fill-rule="evenodd"/>
		<path id="Vector" d="M130.93 103.84L135.59 103.84L135.59 108.49L130.93 108.49L130.93 103.84Z" fill="#000000" fill-opacity="1.000000" fill-rule="evenodd"/>
		<path id="Vector" d="M135.45 103.84L140.1 103.84L140.1 108.49L135.45 108.49L135.45 103.84Z" fill="#000000" fill-opacity="1.000000" fill-rule="evenodd"/>
		<path id="Vector" d="M58.69 108.36L63.34 108.36L63.34 113.01L58.69 113.01L58.69 108.36Z" fill="#000000" fill-opacity="1.000000" fill-rule="evenodd"/>
		<path id="Vector" d="M76.75 108.36L81.4 108.36L81.4 113.01L76.75 113.01L76.75 108.36Z" fill="#000000" fill-opacity="1.000000" fill-rule="evenodd"/>
		<path id="Vector" d="M94.81 108.36L99.46 108.36L99.46 113.01L94.81 113.01L94.81 108.36Z" fill="#000000" fill-opacity="1.000000" fill-rule="evenodd"/>
		<path id="Vector" d="M99.33 108.36L103.98 108.36L103.98 113.01L99.33 113.01L99.33 108.36Z" fill="#000000" fill-opacity="1.000000" fill-rule="evenodd"/>
		<path id="Vector" d="M108.36 108.36L113.01 108.36L113.01 113.01L108.36 113.01L108.36 108.36Z" fill="#000000" fill-opacity="1.000000" fill-rule="evenodd"/>
		<path id="Vector" d="M117.39 108.36L122.04 108.36L122.04 113.01L117.39 113.01L117.39 108.36Z" fill="#000000" fill-opacity="1.000000" fill-rule="evenodd"/>
		<path id="Vector" d="M49.66 112.87L54.31 112.87L54.31 117.53L49.66 117.53L49.66 112.87Z" fill="#000000" fill-opacity="1.000000" fill-rule="evenodd"/>
		<path id="Vector" d="M54.18 112.87L58.83 112.87L58.83 117.53L54.18 117.53L54.18 112.87Z" fill="#000000" fill-opacity="1.000000" fill-rule="evenodd"/>
		<path id="Vector" d="M76.75 112.87L81.4 112.87L81.4 117.53L76.75 117.53L76.75 112.87Z" fill="#000000" fill-opacity="1.000000" fill-rule="evenodd"/>
		<path id="Vector" d="M90.3 112.87L94.95 112.87L94.95 117.53L90.3 117.53L90.3 112.87Z" fill="#000000" fill-opacity="1.000000" fill-rule="evenodd"/>
		<path id="Vector" d="M94.81 112.87L99.46 112.87L99.46 117.53L94.81 117.53L94.81 112.87Z" fill="#000000" fill-opacity="1.000000" fill-rule="evenodd"/>
		<path id="Vector" d="M99.33 112.87L103.98 112.87L103.98 117.53L99.33 117.53L99.33 112.87Z" fill="#000000" fill-opacity="1.000000" fill-rule="evenodd"/>
		<path id="Vector" d="M117.39 112.87L122.04 112.87L122.04 117.53L117.39 117.53L117.39 112.87Z" fill="#000000" fill-opacity="1.000000" fill-rule="evenodd"/>
		<path id="Vector" d="M121.9 112.87L126.56 112.87L126.56 117.53L121.9 117.53L121.9 112.87Z" fill="#000000" fill-opacity="1.000000" fill-rule="evenodd"/>
		<path id="Vector" d="M130.93 112.87L135.59 112.87L135.59 117.53L130.93 117.53L130.93 112.87Z" fill="#000000" fill-opacity="1.000000" fill-rule="evenodd"/>
		<path id="Vector" d="M45.15 117.39L49.8 117.39L49.8 122.04L45.15 122.04L45.15 117.39Z" fill="#000000" fill-opacity="1.000000" fill-rule="evenodd"/>
		<path id="Vector" d="M63.21 117.39L67.86 117.39L67.86 122.04L63.21 122.04L63.21 117.39Z" fill="#000000" fill-opacity="1.000000" fill-rule="evenodd"/>
		<path id="Vector" d="M72.24 117.39L76.89 117.39L76.89 122.04L72.24 122.04L72.24 117.39Z" fill="#000000" fill-opacity="1.000000" fill-rule="evenodd"/>
		<path id="Vector" d="M76.75 117.39L81.4 117.39L81.4 122.04L76.75 122.04L76.75 117.39Z" fill="#000000" fill-opacity="1.000000" fill-rule="evenodd"/>
		<path id="Vector" d="M99.33 117.39L103.98 117.39L103.98 122.04L99.33 122.04L99.33 117.39Z" fill="#000000" fill-opacity="1.000000" fill-rule="evenodd"/>
		<path id="Vector" d="M103.84 117.39L108.49 117.39L108.49 122.04L103.84 122.04L103.84 117.39Z" fill="#000000" fill-opacity="1.000000" fill-rule="evenodd"/>
		<path id="Vector" d="M108.36 117.39L113.01 117.39L113.01 122.04L108.36 122.04L108.36 117.39Z" fill="#000000" fill-opacity="1.000000" fill-rule="evenodd"/>
		<path id="Vector" d="M112.87 117.39L117.52 117.39L117.52 122.04L112.87 122.04L112.87 117.39Z" fill="#000000" fill-opacity="1.000000" fill-rule="evenodd"/>
		<path id="Vector" d="M117.39 117.39L122.04 117.39L122.04 122.04L117.39 122.04L117.39 117.39Z" fill="#000000" fill-opacity="1.000000" fill-rule="evenodd"/>
		<path id="Vector" d="M121.9 117.39L126.56 117.39L126.56 122.04L121.9 122.04L121.9 117.39Z" fill="#000000" fill-opacity="1.000000" fill-rule="evenodd"/>
		<path id="Vector" d="M126.42 117.39L131.07 117.39L131.07 122.04L126.42 122.04L126.42 117.39Z" fill="#000000" fill-opacity="1.000000" fill-rule="evenodd"/>
		<path id="Vector" d="M135.45 117.39L140.1 117.39L140.1 122.04L135.45 122.04L135.45 117.39Z" fill="#000000" fill-opacity="1.000000" fill-rule="evenodd"/>
		<path id="Vector" d="M45.15 121.9L49.8 121.9L49.8 126.56L45.15 126.56L45.15 121.9Z" fill="#000000" fill-opacity="1.000000" fill-rule="evenodd"/>
		<path id="Vector" d="M49.66 121.9L54.31 121.9L54.31 126.56L49.66 126.56L49.66 121.9Z" fill="#000000" fill-opacity="1.000000" fill-rule="evenodd"/>
		<path id="Vector" d="M58.69 121.9L63.34 121.9L63.34 126.56L58.69 126.56L58.69 121.9Z" fill="#000000" fill-opacity="1.000000" fill-rule="evenodd"/>
		<path id="Vector" d="M63.21 121.9L67.86 121.9L67.86 126.56L63.21 126.56L63.21 121.9Z" fill="#000000" fill-opacity="1.000000" fill-rule="evenodd"/>
		<path id="Vector" d="M72.24 121.9L76.89 121.9L76.89 126.56L72.24 126.56L72.24 121.9Z" fill="#000000" fill-opacity="1.000000" fill-rule="evenodd"/>
		<path id="Vector" d="M90.3 121.9L94.95 121.9L94.95 126.56L90.3 126.56L90.3 121.9Z" fill="#000000" fill-opacity="1.000000" fill-rule="evenodd"/>
		<path id="Vector" d="M94.81 121.9L99.46 121.9L99.46 126.56L94.81 126.56L94.81 121.9Z" fill="#000000" fill-opacity="1.000000" fill-rule="evenodd"/>
		<path id="Vector" d="M99.33 121.9L103.98 121.9L103.98 126.56L99.33 126.56L99.33 121.9Z" fill="#000000" fill-opacity="1.000000" fill-rule="evenodd"/>
		<path id="Vector" d="M103.84 121.9L108.49 121.9L108.49 126.56L103.84 126.56L103.84 121.9Z" fill="#000000" fill-opacity="1.000000" fill-rule="evenodd"/>
		<path id="Vector" d="M112.87 121.9L117.52 121.9L117.52 126.56L112.87 126.56L112.87 121.9Z" fill="#000000" fill-opacity="1.000000" fill-rule="evenodd"/>
		<path id="Vector" d="M121.9 121.9L126.56 121.9L126.56 126.56L121.9 126.56L121.9 121.9Z" fill="#000000" fill-opacity="1.000000" fill-rule="evenodd"/>
		<path id="Vector" d="M126.42 121.9L131.07 121.9L131.07 126.56L126.42 126.56L126.42 121.9Z" fill="#000000" fill-opacity="1.000000" fill-rule="evenodd"/>
		<path id="Vector" d="M45.15 126.42L49.8 126.42L49.8 131.07L45.15 131.07L45.15 126.42Z" fill="#000000" fill-opacity="1.000000" fill-rule="evenodd"/>
		<path id="Vector" d="M49.66 126.42L54.31 126.42L54.31 131.07L49.66 131.07L49.66 126.42Z" fill="#000000" fill-opacity="1.000000" fill-rule="evenodd"/>
		<path id="Vector" d="M63.21 126.42L67.86 126.42L67.86 131.07L63.21 131.07L63.21 126.42Z" fill="#000000" fill-opacity="1.000000" fill-rule="evenodd"/>
		<path id="Vector" d="M72.24 126.42L76.89 126.42L76.89 131.07L72.24 131.07L72.24 126.42Z" fill="#000000" fill-opacity="1.000000" fill-rule="evenodd"/>
		<path id="Vector" d="M90.3 126.42L94.95 126.42L94.95 131.07L90.3 131.07L90.3 126.42Z" fill="#000000" fill-opacity="1.000000" fill-rule="evenodd"/>
		<path id="Vector" d="M94.81 126.42L99.46 126.42L99.46 131.07L94.81 131.07L94.81 126.42Z" fill="#000000" fill-opacity="1.000000" fill-rule="evenodd"/>
		<path id="Vector" d="M99.33 126.42L103.98 126.42L103.98 131.07L99.33 131.07L99.33 126.42Z" fill="#000000" fill-opacity="1.000000" fill-rule="evenodd"/>
		<path id="Vector" d="M103.84 126.42L108.49 126.42L108.49 131.07L103.84 131.07L103.84 126.42Z" fill="#000000" fill-opacity="1.000000" fill-rule="evenodd"/>
		<path id="Vector" d="M108.36 126.42L113.01 126.42L113.01 131.07L108.36 131.07L108.36 126.42Z" fill="#000000" fill-opacity="1.000000" fill-rule="evenodd"/>
		<path id="Vector" d="M112.87 126.42L117.52 126.42L117.52 131.07L112.87 131.07L112.87 126.42Z" fill="#000000" fill-opacity="1.000000" fill-rule="evenodd"/>
		<path id="Vector" d="M117.39 126.42L122.04 126.42L122.04 131.07L117.39 131.07L117.39 126.42Z" fill="#000000" fill-opacity="1.000000" fill-rule="evenodd"/>
		<path id="Vector" d="M121.9 126.42L126.56 126.42L126.56 131.07L121.9 131.07L121.9 126.42Z" fill="#000000" fill-opacity="1.000000" fill-rule="evenodd"/>
		<path id="Vector" d="M126.42 126.42L131.07 126.42L131.07 131.07L126.42 131.07L126.42 126.42Z" fill="#000000" fill-opacity="1.000000" fill-rule="evenodd"/>
		<path id="Vector" d="M130.93 126.42L135.59 126.42L135.59 131.07L130.93 131.07L130.93 126.42Z" fill="#000000" fill-opacity="1.000000" fill-rule="evenodd"/>
		<path id="Vector" d="M54.18 130.93L58.83 130.93L58.83 135.59L54.18 135.59L54.18 130.93Z" fill="#000000" fill-opacity="1.000000" fill-rule="evenodd"/>
		<path id="Vector" d="M58.69 130.93L63.34 130.93L63.34 135.59L58.69 135.59L58.69 130.93Z" fill="#000000" fill-opacity="1.000000" fill-rule="evenodd"/>
		<path id="Vector" d="M67.72 130.93L72.37 130.93L72.37 135.59L67.72 135.59L67.72 130.93Z" fill="#000000" fill-opacity="1.000000" fill-rule="evenodd"/>
		<path id="Vector" d="M72.24 130.93L76.89 130.93L76.89 135.59L72.24 135.59L72.24 130.93Z" fill="#000000" fill-opacity="1.000000" fill-rule="evenodd"/>
		<path id="Vector" d="M76.75 130.93L81.4 130.93L81.4 135.59L76.75 135.59L76.75 130.93Z" fill="#000000" fill-opacity="1.000000" fill-rule="evenodd"/>
		<path id="Vector" d="M94.81 130.93L99.46 130.93L99.46 135.59L94.81 135.59L94.81 130.93Z" fill="#000000" fill-opacity="1.000000" fill-rule="evenodd"/>
		<path id="Vector" d="M99.33 130.93L103.98 130.93L103.98 135.59L99.33 135.59L99.33 130.93Z" fill="#000000" fill-opacity="1.000000" fill-rule="evenodd"/>
		<path id="Vector" d="M117.39 130.93L122.04 130.93L122.04 135.59L117.39 135.59L117.39 130.93Z" fill="#000000" fill-opacity="1.000000" fill-rule="evenodd"/>
		<path id="Vector" d="M121.9 130.93L126.56 130.93L126.56 135.59L121.9 135.59L121.9 130.93Z" fill="#000000" fill-opacity="1.000000" fill-rule="evenodd"/>
		<path id="Vector" d="M130.93 130.93L135.59 130.93L135.59 135.59L130.93 135.59L130.93 130.93Z" fill="#000000" fill-opacity="1.000000" fill-rule="evenodd"/>
		<path id="Vector" d="M54.18 135.45L58.83 135.45L58.83 140.1L54.18 140.1L54.18 135.45Z" fill="#000000" fill-opacity="1.000000" fill-rule="evenodd"/>
		<path id="Vector" d="M58.69 135.45L63.34 135.45L63.34 140.1L58.69 140.1L58.69 135.45Z" fill="#000000" fill-opacity="1.000000" fill-rule="evenodd"/>
		<path id="Vector" d="M76.75 135.45L81.4 135.45L81.4 140.1L76.75 140.1L76.75 135.45Z" fill="#000000" fill-opacity="1.000000" fill-rule="evenodd"/>
		<path id="Vector" d="M81.27 135.45L85.92 135.45L85.92 140.1L81.27 140.1L81.27 135.45Z" fill="#000000" fill-opacity="1.000000" fill-rule="evenodd"/>
		<path id="Vector" d="M85.78 135.45L90.43 135.45L90.43 140.1L85.78 140.1L85.78 135.45Z" fill="#000000" fill-opacity="1.000000" fill-rule="evenodd"/>
		<path id="Vector" d="M94.81 135.45L99.46 135.45L99.46 140.1L94.81 140.1L94.81 135.45Z" fill="#000000" fill-opacity="1.000000" fill-rule="evenodd"/>
		<path id="Vector" d="M103.84 135.45L108.49 135.45L108.49 140.1L103.84 140.1L103.84 135.45Z" fill="#000000" fill-opacity="1.000000" fill-rule="evenodd"/>
		<path id="Vector" d="M108.36 135.45L113.01 135.45L113.01 140.1L108.36 140.1L108.36 135.45Z" fill="#000000" fill-opacity="1.000000" fill-rule="evenodd"/>
		<path id="Vector" d="M117.39 135.45L122.04 135.45L122.04 140.1L117.39 140.1L117.39 135.45Z" fill="#000000" fill-opacity="1.000000" fill-rule="evenodd"/>
		<path id="Vector" d="M126.42 135.45L131.07 135.45L131.07 140.1L126.42 140.1L126.42 135.45Z" fill="#000000" fill-opacity="1.000000" fill-rule="evenodd"/>
		<path id="Vector" d="M9.03 9.03L9.03 40.63L40.63 40.63L40.63 9.03L9.03 9.03ZM36.12 36.12L13.54 36.12L13.54 13.54L36.12 13.54L36.12 36.12Z" fill="#000000" fill-opacity="1.000000" fill-rule="nonzero"/>
		<path id="Vector" d="M108.36 9.03L108.36 40.63L139.97 40.63L139.97 9.03L108.36 9.03ZM135.45 36.12L112.87 36.12L112.87 13.54L135.45 13.54L135.45 36.12Z" fill="#000000" fill-opacity="1.000000" fill-rule="nonzero"/>
		<path id="Vector" d="M9.03 108.36L9.03 139.97L40.63 139.97L40.63 108.36L9.03 108.36ZM36.12 135.45L13.54 135.45L13.54 112.87L36.12 112.87L36.12 135.45Z" fill="#000000" fill-opacity="1.000000" fill-rule="nonzero"/>
		<path id="Vector" d="M18.06 18.06L31.6 18.06L31.6 31.6L18.06 31.6L18.06 18.06Z" fill="#000000" fill-opacity="1.000000" fill-rule="evenodd"/>
		<path id="Vector" d="M117.39 18.06L130.93 18.06L130.93 31.6L117.39 31.6L117.39 18.06Z" fill="#000000" fill-opacity="1.000000" fill-rule="evenodd"/>
		<path id="Vector" d="M18.06 117.39L31.6 117.39L31.6 130.93L18.06 130.93L18.06 117.39Z" fill="#000000" fill-opacity="1.000000" fill-rule="evenodd"/>
	</g>
</svg>
